<?xml version="1.0" standalone="no"?><!DOCTYPE svg PUBLIC "-//W3C//DTD SVG 1.1//EN" "http://www.w3.org/Graphics/SVG/1.1/DTD/svg11.dtd"><svg t="1714840982040" class="icon" viewBox="0 0 1024 1024" version="1.1" xmlns="http://www.w3.org/2000/svg" p-id="44907" xmlns:xlink="http://www.w3.org/1999/xlink" width="256" height="256"><path d="M512 96c-229.76 0-416 186.24-416 416s186.24 416 416 416 416-186.24 416-416S741.76 96 512 96z m0 64a352 352 0 1 1 0 704 352 352 0 0 1 0-704z" fill="#000000" fill-opacity=".87" p-id="44908"></path><path d="M694.357333 528.938667c9.386667 0 17.066667 7.68 17.066667 17.066666v29.866667a17.066667 17.066667 0 0 1-17.066667 17.066667h-223.061333a8.533333 8.533333 0 0 0-5.930667 14.72l48.64 46.336a17.066667 17.066667 0 0 1 0.554667 24.149333l-20.608 21.589333a17.066667 17.066667 0 0 1-24.106667 0.597334l-141.098666-134.613334a21.333333 21.333333 0 0 1 14.72-36.778666h350.890666z m-137.045333-208.469334l141.098667 134.570667a21.333333 21.333333 0 0 1-14.72 36.778667H332.8a17.066667 17.066667 0 0 1-17.066667-17.066667v-29.866667c0-9.386667 7.68-17.066667 17.066667-17.066666h223.061333a8.533333 8.533333 0 0 0 5.888-14.72l-48.597333-46.336a17.066667 17.066667 0 0 1-0.597333-24.149334l20.650666-21.589333a17.066667 17.066667 0 0 1 24.106667-0.554667z" fill="#000000" fill-opacity=".87" p-id="44909"></path></svg>