<?xml version="1.0" standalone="no"?><!DOCTYPE svg PUBLIC "-//W3C//DTD SVG 1.1//EN" "http://www.w3.org/Graphics/SVG/1.1/DTD/svg11.dtd"><svg t="1714814097480" class="icon" viewBox="0 0 1024 1024" version="1.1" xmlns="http://www.w3.org/2000/svg" p-id="10472" xmlns:xlink="http://www.w3.org/1999/xlink" width="256" height="256"><path d="M1007.68 950.656c0 3.008 0 3.008 0 0 0 42.208-30.144 75.36-72.32 72.32H112.544c-39.168 0-69.312-33.152-69.312-72.32V444.32c0-21.12 9.056-42.208 27.136-57.28L480.256 16.384c30.144-24.128 69.312-21.12 96.448 6.016L986.56 396.16c12.032 15.04 21.088 33.12 21.088 51.2v503.328z m-90.432-15.04v-482.24L525.472 91.712 133.664 447.328v488.256h783.584z m-567.744-211.008h361.664v90.432H349.504v-90.432z" fill="#666666" p-id="10473"></path></svg>