<?xml version="1.0" standalone="no"?><!DOCTYPE svg PUBLIC "-//W3C//DTD SVG 1.1//EN" "http://www.w3.org/Graphics/SVG/1.1/DTD/svg11.dtd"><svg t="1714839616103" class="icon" viewBox="0 0 1024 1024" version="1.1" xmlns="http://www.w3.org/2000/svg" p-id="39636" xmlns:xlink="http://www.w3.org/1999/xlink" width="256" height="256"><path d="M938.67 597.33V170.67H768V0H85.33v597.33H0V1024h1024V597.33h-85.33zM768 256h85.33v341.33H768V256zM170.67 85.33h512v512h-85.33V768H426.67V597.33h-256v-512z m768 853.34H85.33v-256h256v170.67h341.33V682.67h256v256z" fill="#333333" p-id="39637"></path><path d="M213.33 170.67h85.33V256h-85.33zM341.33 170.67H640V256H341.33zM213.33 341.33h85.33v85.33h-85.33zM341.33 341.33H640v85.33H341.33z" fill="#333333" p-id="39638"></path></svg>