<?xml version="1.0" standalone="no"?><!DOCTYPE svg PUBLIC "-//W3C//DTD SVG 1.1//EN" "http://www.w3.org/Graphics/SVG/1.1/DTD/svg11.dtd"><svg t="1714840999549" class="icon" viewBox="0 0 1024 1024" version="1.1" xmlns="http://www.w3.org/2000/svg" p-id="46086" xmlns:xlink="http://www.w3.org/1999/xlink" width="256" height="256"><path d="M801.92 477.76c-21.76 43.52-50.56 77.76-86.72 102.4s-74.56 37.12-115.84 37.12h-273.28v334.4H189.44V72.64h397.12c48.64 0 91.84 11.2 129.28 33.92 37.44 22.4 66.56 53.44 87.36 92.8 20.48 39.36 31.04 83.84 31.04 133.44 0.32 53.12-10.56 101.44-32.32 144.96z m-138.56-246.4c-23.36-23.36-52.8-35.2-88.96-35.2h-248.64v297.28h248.64c24.64 0 46.72-8.32 65.92-25.28 19.2-16.96 33.6-37.76 43.2-62.4 9.6-24.64 14.72-48.96 14.72-73.28 0-44.16-11.52-78.08-34.88-101.12z" p-id="46087"></path></svg>