<?xml version="1.0" standalone="no"?><!DOCTYPE svg PUBLIC "-//W3C//DTD SVG 1.1//EN" "http://www.w3.org/Graphics/SVG/1.1/DTD/svg11.dtd"><svg t="1714825106359" class="icon" viewBox="0 0 1024 1024" version="1.1" xmlns="http://www.w3.org/2000/svg" p-id="16959" xmlns:xlink="http://www.w3.org/1999/xlink" width="256" height="256"><path d="M734.982002 321.713142 321.736167 734.918046l-32.67826-32.67826 413.20388-413.245835L734.982002 321.713142zM355.591229 467.344964c-61.60201 0-111.688755-50.04172-111.688755-111.688755 0-61.734016 50.085722-111.688755 111.688755-111.688755 61.778019 0 111.688755 49.953715 111.688755 111.688755C467.279984 417.303244 417.369248 467.344964 355.591229 467.344964zM355.591229 422.583504c36.996612 0 67.056232-29.92966 67.056232-66.926272s-30.05962-67.056232-67.056232-67.056232-66.924225 30.05962-66.924225 67.056232S318.594617 422.583504 355.591229 422.583504zM780.007475 668.340721c0 61.646012-49.953715 111.732757-111.602797 111.732757-61.734016 0-111.688755-50.085722-111.688755-111.732757 0-61.734016 49.953715-111.688755 111.688755-111.688755C730.05376 556.652989 780.007475 606.606705 780.007475 668.340721zM735.331973 668.340721c0-36.996612-29.92966-67.01223-66.926272-67.01223-37.08257 0-67.01223 30.015617-67.01223 67.01223 0 37.040614 29.92966 67.056232 67.01223 67.056232C705.402313 735.397976 735.331973 705.382359 735.331973 668.340721zM958.70846 243.968477l0 536.105001c0 98.599645-79.971379 178.700985-178.700985 178.700985L243.903497 958.774463c-98.642624 0-178.61298-80.101339-178.61298-178.700985L65.290517 243.968477c0-98.772584 79.969333-178.744987 178.61298-178.744987l536.105001 0C878.73708 65.22349 958.70846 145.19487 958.70846 243.968477zM869.44546 288.599977c0-73.994248-60.119239-134.069485-134.113487-134.069485L288.667004 154.530492c-74.082252 0-134.071532 60.075237-134.071532 134.069485l0 446.797999c0 73.994248 59.989279 133.983527 134.071532 133.983527l446.664969 0c73.994248 0 134.113487-59.989279 134.113487-133.983527L869.44546 288.599977z" p-id="16960"></path></svg>