<?xml version="1.0" standalone="no"?><!DOCTYPE svg PUBLIC "-//W3C//DTD SVG 1.1//EN" "http://www.w3.org/Graphics/SVG/1.1/DTD/svg11.dtd"><svg t="1714834015210" class="icon" viewBox="0 0 1024 1024" version="1.1" xmlns="http://www.w3.org/2000/svg" p-id="22205" xmlns:xlink="http://www.w3.org/1999/xlink" width="256" height="256"><path d="M976 96H560V48a48 48 0 1 0-96 0v48H48a48 48 0 1 0 0 96h48v544a48 48 0 0 0 48 48h252.112l-158.064 158.064a48 48 0 0 0 67.888 67.872L464 851.888V976a48 48 0 1 0 96 0v-124.112l158.064 158.064a48 48 0 0 0 67.872-67.888L627.888 784H880a48 48 0 0 0 48-48V192h48a48 48 0 1 0 0-96z m-144 592H192V192h640v496z" fill="" p-id="22206"></path></svg>