<?xml version="1.0" standalone="no"?><!DOCTYPE svg PUBLIC "-//W3C//DTD SVG 1.1//EN" "http://www.w3.org/Graphics/SVG/1.1/DTD/svg11.dtd"><svg t="1714839688132" class="icon" viewBox="0 0 1024 1024" version="1.1" xmlns="http://www.w3.org/2000/svg" p-id="42712" xmlns:xlink="http://www.w3.org/1999/xlink" width="256" height="256"><path d="M974.077098 719.818594l-41.795919-197.369614c-2.321995-9.287982-2.321995-16.253968 0-25.541951l41.795919-197.369614c6.965986-32.507937-11.609977-65.015873-44.117914-74.303855L730.267574 162.539683c-9.287982-2.321995-16.253968-6.965986-23.219955-13.931973L556.117914 16.253968c-13.931973-11.609977-30.185941-16.253968-46.439909-16.253968s-32.507937 4.643991-44.117914 16.253968l-143.963719 132.353742c-6.965986 6.965986-16.253968 11.609977-25.54195 13.931973L94.040816 225.23356c-32.507937 9.287982-51.0839 44.117914-44.117914 76.62585l46.43991 192.725624c2.321995 9.287982 2.321995 18.575964 0 30.185941l-46.43991 195.047619c-6.965986 32.507937 11.609977 65.015873 44.117914 76.62585l197.369615 62.693878c9.287982 2.321995 16.253968 6.965986 23.219954 13.931973l150.929706 134.675737c11.609977 11.609977 27.863946 16.253968 44.117914 16.253968s30.185941-4.643991 44.117913-16.253968l153.251701-130.031746c6.965986-4.643991 13.931973-9.287982 20.897959-11.609978l204.335601-69.659864c30.185941-11.609977 48.761905-44.117914 41.795919-76.62585z m-496.90703 48.761905c-23.219955 0-65.015873-2.321995-95.201814-6.965987-11.609977-2.321995-20.897959-11.609977-20.897959-23.219954v-53.405896c0-9.287982 6.965986-16.253968 16.253968-13.931973 18.575964 2.321995 48.761905 6.965986 81.269841 6.965987 65.015873 0 88.235828-20.897959 88.235828-69.659864 0-51.0839-20.897959-71.981859-74.303855-71.98186h-51.0839c-6.965986 0-11.609977-4.643991-11.609977-11.609977V464.399093c0-6.965986 4.643991-11.609977 11.609977-11.609977h51.0839c39.473923 0 60.371882-13.931973 60.371882-65.015873 0-46.439909-18.575964-65.015873-67.337868-65.015873-16.253968 0-65.015873 4.643991-90.557823 9.287981-9.287982 0-16.253968-4.643991-16.253969-18.575963v-51.0839c0-11.609977 6.965986-20.897959 18.575964-23.219955 30.185941-4.643991 69.659864-6.965986 97.52381-6.965987 118.421769 0 171.827664 39.473923 171.827664 130.031747 0 69.659864-27.863946 113.777778-85.913832 127.70975v2.321996c62.693878 13.931973 97.52381 58.049887 97.523809 125.387755 4.643991 97.52381-62.693878 150.929705-181.115646 150.929705z" p-id="42713"></path></svg>