<?xml version="1.0" standalone="no"?><!DOCTYPE svg PUBLIC "-//W3C//DTD SVG 1.1//EN" "http://www.w3.org/Graphics/SVG/1.1/DTD/svg11.dtd"><svg t="1714838759913" class="icon" viewBox="0 0 1024 1024" version="1.1" xmlns="http://www.w3.org/2000/svg" p-id="35548" xmlns:xlink="http://www.w3.org/1999/xlink" width="256" height="256"><path d="M831.232 961.28H212.224c-54.528 0-99.072-44.544-99.072-99.072v-683.52c0-54.528 44.544-99.072 99.072-99.072h619.008c54.528 0 99.072 44.544 99.072 99.072v683.52c0 54.528-44.544 99.072-99.072 99.072zM212.224 141.056c-20.736 0-37.632 16.896-37.632 37.632v683.52c0 20.736 16.896 37.632 37.632 37.632h619.008c20.736 0 37.632-16.896 37.632-37.632v-683.52c0-20.736-16.896-37.632-37.632-37.632H212.224z" fill="#040000" p-id="35549"></path><path d="M898.816 393.728h-747.52c-16.896 0-30.72-13.824-30.72-30.72s13.824-30.72 30.72-30.72h747.52c16.896 0 30.72 13.824 30.72 30.72s-13.824 30.72-30.72 30.72zM374.784 778.752c-7.68 0-15.616-2.816-21.504-8.704l-102.912-100.864c-5.888-5.632-9.216-13.568-9.216-21.76s3.072-16.128 8.96-21.76l101.888-102.912c12.032-12.032 31.488-12.032 43.52-0.256 12.032 12.032 12.032 31.488 0.256 43.52l-80.128 80.896 80.896 79.36c12.032 11.776 12.288 31.232 0.512 43.52-6.4 5.888-14.336 8.96-22.272 8.96zM667.648 778.752c-7.936 0-15.872-3.072-22.016-9.216-11.776-12.032-11.776-31.488 0.512-43.52l80.896-79.36-80.128-80.896c-12.032-12.032-11.776-31.488 0.256-43.52 12.032-12.032 31.488-11.776 43.52 0.256l101.888 102.912c5.632 5.888 8.96 13.568 8.96 21.76s-3.328 15.872-9.216 21.76l-102.912 100.864c-6.144 5.888-13.824 8.96-21.76 8.96zM476.16 776.448c-3.84 0-7.68-0.768-11.264-2.048-15.872-6.144-23.552-24.064-17.408-39.936l83.456-211.456c6.144-15.872 24.064-23.552 39.936-17.408 15.872 6.144 23.552 24.064 17.408 39.936l-83.456 211.456c-4.864 12.032-16.384 19.456-28.672 19.456zM488.448 268.032h-225.024c-16.896 0-30.72-13.824-30.72-30.72s13.824-30.72 30.72-30.72h225.024c16.896 0 30.72 13.824 30.72 30.72s-13.824 30.72-30.72 30.72z" fill="#040000" p-id="35550"></path></svg>